8_ID_stride3.mot
nRows=7
nColumns=38

name 8_ID_stride3.mot
datacolumns 38
datarows 7
range 1.2900000000 1.3200000000
endheader
time	pelvis_tilt_moment	pelvis_list_moment	pelvis_rotation_moment	pelvis_tx_force	pelvis_ty_force	pelvis_tz_force	hip_flexion_r_moment	hip_adduction_r_moment	hip_rotation_r_moment	knee_angle_r_moment	ankle_angle_r_moment	subtalar_angle_r_moment	mtp_angle_r_moment	hip_flexion_l_moment	hip_adduction_l_moment	hip_rotation_l_moment	knee_angle_l_moment	ankle_angle_l_moment	subtalar_angle_l_moment	mtp_angle_l_moment	lumbar_extension_moment	lumbar_bending_moment	lumbar_rotation_moment	arm_flex_r_moment	arm_add_r_moment	arm_rot_r_moment	elbow_flex_r_moment	pro_sup_r_moment	wrist_flex_r_moment	wrist_dev_r_moment	arm_flex_l_moment	arm_add_l_moment	arm_rot_l_moment	elbow_flex_l_moment	pro_sup_l_moment	wrist_flex_l_moment	wrist_dev_l_moment
        1.2900000000	       12.2517739262	       -7.6106692940	        6.6917831808	        1.0314118825	      218.4298620698	       95.2405261931	      -33.9953610178	       -0.8927529352	        4.9838231726	      -29.0585340204	        6.4424516110	        7.2272031030	        0.0927043742	       53.0153443992	      -16.5417451609	        8.1581450794	       24.4698978153	        5.1520909779	       -1.0444439307	        0.3039131686	      -10.1389029985	      -16.4458969709	       10.4049052294	       -2.6630001273	        1.2586405991	        1.5635426741	       -0.7335949659	        0.0653717740	        0.1497799745	        0.1408614431	       -5.5116658554	       -1.1068102995	       -0.5232020901	       -1.1479414727	       -0.0074858860	       -0.0890121456	        0.1168358004	
        1.2950000000	       33.5134184045	       15.2005074703	       12.8599692348	      -59.6418067218	      384.1198102342	       89.1182023976	      -17.4057284301	       -8.0772921535	       13.4568917581	      -20.0257503931	        2.7009453121	       13.1819771405	        0.1808690958	       48.5143554379	      -12.0081566129	        7.0811358431	       22.8834944588	        5.0928860615	       -0.9748136292	        0.3038671650	        9.4929380543	      -27.4806814864	        9.4637901290	       -4.1965100651	        1.8968755989	        1.9845317541	        0.0352501103	        0.0594881583	        0.2004193819	        0.0911010301	       -7.0199590971	       -1.3622831459	       -0.4123899729	       -0.3804588245	       -0.0197242673	       -0.0556880163	        0.0624162395	
        1.3000000000	       59.4273527777	       41.4807676984	       20.4764174885	      -97.5961175211	      448.0674094093	       62.3350408478	      -12.1646041236	      -23.1903292678	       26.6634913605	       -7.5663121810	       -2.1465241699	       20.2101314115	        0.2629861554	       49.0178987930	       -8.1399799816	        5.9618656436	       21.2670259249	        4.9909556867	       -0.9005391536	        0.2988621307	       30.0878920009	      -38.1817919900	        8.3266126758	       -5.1223525706	        2.4981095591	        2.2871669120	        0.9779834240	        0.0483900290	        0.2470768675	        0.0198678001	       -7.8051873740	       -1.3766246384	       -0.2912175195	        0.5529619848	       -0.0349153100	       -0.0189231532	       -0.0112436114	
        1.3050000000	       81.1770610701	       59.3543415833	       29.2548998876	     -109.9887307756	      459.4486248087	       14.3424972843	      -11.8741211428	      -43.0597762759	       42.8235460461	        6.1811633345	       -8.8778863426	       27.7399577272	        0.3283149107	       51.5607306999	       -4.7196536451	        4.8103773412	       20.3790911351	        4.8486858341	       -0.8222572613	        0.2858450628	       45.7911976293	      -43.6530582094	        7.0890747705	       -5.4358064745	        2.7550959634	        2.3950955761	        1.8575538068	        0.0333480071	        0.2670314852	       -0.0547762258	       -8.0366669228	       -1.3465265717	       -0.1403270236	        1.4226639781	       -0.0472450911	        0.0177147945	       -0.0834936020	
        1.3100000000	       92.4151125797	       64.6091917806	       38.4596641496	      -85.1586601000	      327.2865923514	      -37.1206781687	      -33.8429828696	      -61.1101154118	       58.7553586549	       17.4862820613	      -20.5661227476	       34.9873519334	        0.3683539303	       57.9359985432	       -1.6719534858	        3.6391166311	       20.2207973327	        4.6612498334	       -0.7400034550	        0.2664949681	       53.5577694077	      -44.3532727973	        5.8528905455	       -5.0897336032	        2.6677143143	        2.2206891985	        2.4687751547	        0.0164482962	        0.2649782728	       -0.1146992248	       -7.4571602061	       -0.8611543081	        0.0819778753	        2.0331254006	       -0.0532008928	        0.0512742809	       -0.1354060998	
        1.3150000000	       81.3258250453	       47.1425689533	       45.6042213094	      -30.5763909360	      119.2661531680	      -69.2241182571	      -72.2828217343	      -69.0159586368	       68.1211022887	       23.2681623432	      -37.0268531287	       41.1134159726	        0.3739077050	       64.5392030759	        1.0371733052	        2.5443276051	       21.1955030564	        4.4284075255	       -0.6576149015	        0.2423977268	       51.7168327553	      -36.8247386238	        4.7612740338	       -4.2362638454	        2.0264675938	        1.7462207505	        2.6908412892	       -0.0003027736	        0.2277292482	       -0.1489277751	       -6.3554864492	       -0.0541028829	        0.3974373091	        2.2836528338	       -0.0488996165	        0.0816325043	       -0.1562342864	
        1.3200000000	       50.2536239588	       15.1328489000	       47.1348447673	       37.6331364613	     -113.8090178594	      -64.6165328137	     -119.5740395662	      -63.7033272119	       65.3524251366	       25.1635904410	      -55.8480326880	       45.4300598479	        0.3536730279	       69.6414089322	        3.2688702264	        1.6561800083	       22.9101111132	        4.1637084452	       -0.5819014818	        0.2160700259	       44.9876739742	      -23.4573274018	        3.9626906725	       -3.1665673617	        1.0134231317	        1.0876818252	        2.6019277047	       -0.0162024525	        0.1697986951	       -0.1606828746	       -5.0348672986	        1.0000115635	        0.7831046274	        2.2492849207	       -0.0378146727	        0.1097464627	       -0.1521971058	
